<svg xmlns="http://www.w3.org/2000/svg" viewBox="0 0 60 60">
  <rect width="60" height="60" rx="12" fill="#ff6828"/>
  <g transform="translate(16.4 12) scale(0.385)" fill="#fff">
    <path d="m58.01,31.94c-4.7-3.73-10.26-5.63-16.51-5.63-4.42,0-9.17.97-14.13,2.89-1.64.63-3.33,1.38-5.03,2.23l-.88.44,7.05-24.6-13.16-3.1-.16.56C7.89,30.21,3.89,44.19,3.62,45.16c-.69,2.55.5,5.22,2.97,6.64,1.17.67,2.37,1.01,3.56,1.01,2.66,0,4.89-1.65,6.51-2.85,10.34-7.66,18.42-11.39,24.7-11.39,2.95,0,5.53.86,7.66,2.55,1.5,1.19,6.06,4.81,2.92,13.69-4.08,11.57-17.83,22.42-26.22,23.19-.31.03-.61.04-.89.04-2.19,0-3.19-.9-4.02-2.24-.57-.93-.69-2.01-.36-3.23,1.32-4.76,9.36-10.49,14.44-13.18l.29-.16-6.63-10.68-.26.13c-8.62,4.45-18.7,12.34-21.17,21.16-1.15,4.11-.54,8.12,1.8,11.9,3.4,5.49,9.08,8.52,15.98,8.52.72,0,1.46-.03,2.2-.1,14.66-1.35,32.33-16.14,37.8-31.66,3.75-10.63,1.3-20.07-6.89-26.57Z"/>
  </g>
</svg>
